<svg xmlns="http://www.w3.org/2000/svg" viewBox="0 0 200 220" fill="none">
  
  <defs>
    <radialGradient id="qBody" cx="0.4" cy="0.32" r="0.85">
      <stop offset="0" stop-color="#FFF4DC"></stop>
      <stop offset="0.55" stop-color="#F2DAA0"></stop>
      <stop offset="1" stop-color="#C9A055"></stop>
    </radialGradient>
    <linearGradient id="qLeaf" x1="0" y1="0" x2="1" y2="1">
      <stop offset="0" stop-color="#92C49E"></stop>
      <stop offset="1" stop-color="#4F8C5F"></stop>
    </linearGradient>
    <linearGradient id="qStem" x1="0" y1="0" x2="0" y2="1">
      <stop offset="0" stop-color="#6BAE7C"></stop>
      <stop offset="1" stop-color="#4F8C5F"></stop>
    </linearGradient>
  </defs>

  
  <ellipse cx="100" cy="198" rx="58" ry="7" fill="#3B2E1E" opacity="0.14"></ellipse>

  
  <path d="M100 64 C 100 50, 98 38, 92 28" stroke="url(#qStem)" stroke-width="5" stroke-linecap="round" fill="none"></path>
  
  <path d="M92 28 C 70 18, 60 30, 64 44 C 76 52, 96 46, 100 36 C 100 32, 96 28, 92 28 Z" fill="url(#qLeaf)" stroke="#3F7752" stroke-width="2.5" stroke-linejoin="round"></path>
  
  <path d="M92 30 Q 80 36, 70 42" stroke="#3F7752" stroke-width="1.5" stroke-linecap="round" fill="none" opacity="0.55"></path>

  
  <path d="M50 96 L 56 72 L 68 90 Z" fill="url(#qBody)" stroke="#8A6438" stroke-width="2.5" stroke-linejoin="round"></path>
  <path d="M150 96 L 144 72 L 132 90 Z" fill="url(#qBody)" stroke="#8A6438" stroke-width="2.5" stroke-linejoin="round"></path>
  
  <path d="M55 90 L 58 80 L 64 88 Z" fill="#F58A5C" opacity="0.65"></path>
  <path d="M145 90 L 142 80 L 136 88 Z" fill="#F58A5C" opacity="0.65"></path>

  
  <path d="M36 130 C 36 86, 64 64, 100 64 C 136 64, 164 86, 164 130 C 164 172, 138 192, 100 192 C 62 192, 36 172, 36 130 Z" fill="url(#qBody)" stroke="#8A6438" stroke-width="2.5"></path>

  
  <path d="M70 140 C 70 124, 84 116, 100 116 C 116 116, 130 124, 130 140 C 130 158, 116 174, 100 174 C 84 174, 70 158, 70 140 Z" fill="#FFF4DC" opacity="0.7"></path>

  
  <circle cx="64" cy="132" r="9" fill="#F58A5C" opacity="0.55"></circle>
  <circle cx="136" cy="132" r="9" fill="#F58A5C" opacity="0.55"></circle>

  
  <ellipse cx="82" cy="118" rx="8" ry="10" fill="#2B2114"></ellipse>
  <ellipse cx="118" cy="118" rx="8" ry="10" fill="#2B2114"></ellipse>
  
  <circle cx="85" cy="114" r="2.6" fill="#FFFFFF"></circle>
  <circle cx="121" cy="114" r="2.6" fill="#FFFFFF"></circle>
  <circle cx="80" cy="122" r="1.4" fill="#FFFFFF" opacity="0.7"></circle>
  <circle cx="116" cy="122" r="1.4" fill="#FFFFFF" opacity="0.7"></circle>

  
  <ellipse cx="100" cy="138" rx="3" ry="2.2" fill="#8A6438"></ellipse>

  
  <path d="M91 148 Q 100 156, 109 148" stroke="#2B2114" stroke-width="2.5" stroke-linecap="round" fill="none"></path>

  
  <ellipse cx="78" cy="188" rx="10" ry="5" fill="#C9A055" stroke="#8A6438" stroke-width="2"></ellipse>
  <ellipse cx="122" cy="188" rx="10" ry="5" fill="#C9A055" stroke="#8A6438" stroke-width="2"></ellipse>
</svg>